<svg width="769" height="205" viewBox="0 0 769 205" fill="none" xmlns="http://www.w3.org/2000/svg">
<path d="M36.8235 151.598C42.4886 151.598 46.6195 150.949 49.216 149.65C51.8125 148.234 53.1108 145.874 53.1108 142.569C53.1108 139.5 51.6945 136.963 48.8619 134.956C46.1474 132.95 41.6035 130.767 35.2302 128.406C31.3354 126.99 27.7356 125.515 24.431 123.98C21.2443 122.328 18.4708 120.44 16.1103 118.315C13.7498 116.191 11.8614 113.653 10.4451 110.703C9.14686 107.634 8.49773 103.916 8.49773 99.5493C8.49773 91.0516 11.6254 84.3832 17.8806 79.5442C24.1359 74.5872 32.6336 72.1087 43.3738 72.1087C48.8029 72.1087 53.996 72.6398 58.953 73.702C63.91 74.6462 67.6277 75.5904 70.1062 76.5346L66.2115 93.8841C63.851 92.8219 60.8414 91.8777 57.1826 91.0516C53.5239 90.1074 49.275 89.6353 44.436 89.6353C40.0691 89.6353 36.5284 90.4024 33.8139 91.9367C31.0993 93.353 29.742 95.5955 29.742 98.6641C29.742 100.198 29.9781 101.556 30.4502 102.736C31.0403 103.916 31.9845 105.037 33.2828 106.1C34.581 107.044 36.2924 108.047 38.4168 109.109C40.5412 110.053 43.1378 111.057 46.2064 112.119C51.2814 114.007 55.5893 115.896 59.13 117.784C62.6707 119.554 65.5623 121.62 67.8048 123.98C70.1653 126.223 71.8766 128.819 72.9388 131.77C74.001 134.72 74.5321 138.261 74.5321 142.392C74.5321 151.244 71.2275 157.971 64.6181 162.574C58.1268 167.059 48.8029 169.301 36.6464 169.301C28.5028 169.301 21.9525 168.593 16.9955 167.177C12.0384 165.879 8.55674 164.817 6.55033 163.99L10.2681 146.11C13.4547 147.408 17.2315 148.647 21.5984 149.828C26.0833 151.008 31.1583 151.598 36.8235 151.598ZM121.806 151.952C128.416 151.952 133.432 151.598 136.854 150.89V127.167C135.674 126.813 133.963 126.459 131.72 126.105C129.478 125.751 126.999 125.574 124.285 125.574C121.924 125.574 119.505 125.751 117.026 126.105C114.666 126.459 112.482 127.108 110.476 128.052C108.588 128.996 107.053 130.354 105.873 132.124C104.693 133.776 104.103 135.901 104.103 138.497C104.103 143.572 105.696 147.113 108.883 149.119C112.069 151.008 116.377 151.952 121.806 151.952ZM120.036 72.1087C127.117 72.1087 133.078 72.9939 137.917 74.7643C142.756 76.5346 146.591 79.0131 149.424 82.1998C152.374 85.3864 154.44 89.2812 155.62 93.8841C156.918 98.3691 157.568 103.326 157.568 108.755V164.876C154.263 165.584 149.247 166.41 142.519 167.354C135.91 168.416 128.416 168.947 120.036 168.947C114.489 168.947 109.414 168.416 104.811 167.354C100.208 166.292 96.2541 164.581 92.9494 162.22C89.7628 159.86 87.2252 156.791 85.3369 153.014C83.5665 149.237 82.6813 144.575 82.6813 139.028C82.6813 133.717 83.6845 129.232 85.6909 125.574C87.8154 121.915 90.6479 118.964 94.1887 116.722C97.7294 114.361 101.801 112.709 106.404 111.765C111.125 110.703 116.023 110.171 121.098 110.171C123.459 110.171 125.937 110.348 128.534 110.703C131.13 110.939 133.904 111.411 136.854 112.119V108.578C136.854 106.1 136.559 103.739 135.969 101.497C135.379 99.2542 134.317 97.3068 132.783 95.6545C131.366 93.8841 129.419 92.5269 126.94 91.5827C124.58 90.6385 121.57 90.1664 117.911 90.1664C112.954 90.1664 108.411 90.5205 104.28 91.2286C100.149 91.9367 96.7852 92.7629 94.1887 93.7071L91.5331 76.3576C94.2477 75.4134 98.2015 74.4692 103.395 73.525C108.588 72.5808 114.135 72.1087 120.036 72.1087ZM210.71 168.77C204.337 168.652 199.026 167.944 194.777 166.646C190.646 165.348 187.341 163.518 184.863 161.158C182.384 158.679 180.614 155.67 179.552 152.129C178.608 148.47 178.136 144.339 178.136 139.736V33.1608L199.557 29.6201V135.665C199.557 138.261 199.734 140.445 200.088 142.215C200.56 143.985 201.327 145.52 202.389 146.818C203.452 147.998 204.868 148.942 206.638 149.65C208.527 150.241 210.887 150.713 213.72 151.067L210.71 168.77ZM258.311 151.952C264.92 151.952 269.936 151.598 273.359 150.89V127.167C272.179 126.813 270.467 126.459 268.225 126.105C265.982 125.751 263.504 125.574 260.789 125.574C258.429 125.574 256.009 125.751 253.531 126.105C251.17 126.459 248.987 127.108 246.98 128.052C245.092 128.996 243.558 130.354 242.377 132.124C241.197 133.776 240.607 135.901 240.607 138.497C240.607 143.572 242.2 147.113 245.387 149.119C248.574 151.008 252.882 151.952 258.311 151.952ZM256.54 72.1087C263.622 72.1087 269.582 72.9939 274.421 74.7643C279.26 76.5346 283.096 79.0131 285.928 82.1998C288.879 85.3864 290.944 89.2812 292.125 93.8841C293.423 98.3691 294.072 103.326 294.072 108.755V164.876C290.767 165.584 285.751 166.41 279.024 167.354C272.415 168.416 264.92 168.947 256.54 168.947C250.993 168.947 245.918 168.416 241.315 167.354C236.712 166.292 232.758 164.581 229.454 162.22C226.267 159.86 223.73 156.791 221.841 153.014C220.071 149.237 219.186 144.575 219.186 139.028C219.186 133.717 220.189 129.232 222.195 125.574C224.32 121.915 227.152 118.964 230.693 116.722C234.234 114.361 238.306 112.709 242.909 111.765C247.63 110.703 252.528 110.171 257.603 110.171C259.963 110.171 262.442 110.348 265.038 110.703C267.635 110.939 270.408 111.411 273.359 112.119V108.578C273.359 106.1 273.064 103.739 272.474 101.497C271.883 99.2542 270.821 97.3068 269.287 95.6545C267.871 93.8841 265.923 92.5269 263.445 91.5827C261.084 90.6385 258.075 90.1664 254.416 90.1664C249.459 90.1664 244.915 90.5205 240.784 91.2286C236.653 91.9367 233.29 92.7629 230.693 93.7071L228.038 76.3576C230.752 75.4134 234.706 74.4692 239.899 73.525C245.092 72.5808 250.639 72.1087 256.54 72.1087ZM290.708 41.3045C290 42.9568 289.056 44.7862 287.876 46.7926C286.813 48.681 285.456 50.5103 283.804 52.2807C282.152 53.933 280.263 55.3493 278.139 56.5296C276.014 57.7098 273.654 58.2999 271.057 58.2999C268.933 58.2999 266.926 58.0049 265.038 57.4147C263.15 56.7066 261.261 55.9394 259.373 55.1133C257.603 54.2871 255.832 53.5789 254.062 52.9888C252.409 52.2807 250.757 51.9266 249.105 51.9266C246.862 51.9266 244.915 52.6938 243.263 54.2281C241.728 55.7624 240.489 57.5328 239.545 59.5392L228.746 53.1659C229.336 51.5135 230.162 49.7432 231.224 47.8548C232.404 45.8484 233.821 44.019 235.473 42.3667C237.243 40.5963 239.191 39.121 241.315 37.9408C243.44 36.7605 245.8 36.1704 248.397 36.1704C250.521 36.1704 252.528 36.5245 254.416 37.2326C256.304 37.9408 258.134 38.7079 259.904 39.5341C261.792 40.2422 263.563 40.9504 265.215 41.6585C266.985 42.3667 268.697 42.7207 270.349 42.7207C272.592 42.7207 274.48 41.9536 276.014 40.4193C277.667 38.7669 278.965 36.9376 279.909 34.9312L290.708 41.3045ZM398.732 120.617C398.732 127.934 397.67 134.602 395.545 140.622C393.421 146.641 390.411 151.775 386.517 156.024C382.622 160.273 377.901 163.577 372.354 165.938C366.925 168.298 360.905 169.479 354.296 169.479C347.687 169.479 341.667 168.298 336.238 165.938C330.809 163.577 326.147 160.273 322.252 156.024C318.358 151.775 315.289 146.641 313.047 140.622C310.922 134.602 309.86 127.934 309.86 120.617C309.86 113.299 310.922 106.69 313.047 100.789C315.289 94.7693 318.358 89.6353 322.252 85.3864C326.265 81.1376 330.986 77.8919 336.415 75.6494C341.844 73.289 347.805 72.1087 354.296 72.1087C360.787 72.1087 366.748 73.289 372.177 75.6494C377.724 77.8919 382.445 81.1376 386.34 85.3864C390.234 89.6353 393.244 94.7693 395.368 100.789C397.611 106.69 398.732 113.299 398.732 120.617ZM376.78 120.617C376.78 111.411 374.773 104.152 370.76 98.8411C366.866 93.412 361.377 90.6975 354.296 90.6975C347.215 90.6975 341.667 93.412 337.655 98.8411C333.76 104.152 331.812 111.411 331.812 120.617C331.812 129.94 333.76 137.317 337.655 142.746C341.667 148.175 347.215 150.89 354.296 150.89C361.377 150.89 366.866 148.175 370.76 142.746C374.773 137.317 376.78 129.94 376.78 120.617Z" fill="white"/>
<path d="M492.381 118.315C492.381 108.637 491.142 101.674 488.664 97.4249C486.303 93.058 481.818 90.8745 475.209 90.8745C472.848 90.8745 470.252 91.0516 467.419 91.4056C464.587 91.7597 462.462 92.0548 461.046 92.2908V167H439.625V77.4198C443.756 76.2396 449.126 75.1183 455.735 74.0561C462.462 72.9939 469.544 72.4628 476.979 72.4628C483.353 72.4628 488.546 73.289 492.558 74.9413C496.689 76.5936 500.112 78.7771 502.827 81.4916C504.125 80.5474 505.777 79.5442 507.784 78.482C509.79 77.4198 512.032 76.4756 514.511 75.6494C516.989 74.7052 519.586 73.9381 522.3 73.348C525.133 72.7578 527.966 72.4628 530.798 72.4628C537.998 72.4628 543.899 73.525 548.502 75.6494C553.223 77.6558 556.882 80.5474 559.478 84.3242C562.193 87.9829 564.022 92.4679 564.966 97.7789C566.028 102.972 566.559 108.696 566.559 114.951V167H545.138V118.315C545.138 108.637 543.958 101.674 541.597 97.4249C539.237 93.058 534.693 90.8745 527.966 90.8745C524.543 90.8745 521.297 91.4647 518.229 92.6449C515.16 93.7071 512.859 94.7693 511.324 95.8315C512.268 98.7821 512.918 101.91 513.272 105.214C513.626 108.519 513.803 112.06 513.803 115.837V167H492.381V118.315ZM620.066 151.952C626.675 151.952 631.691 151.598 635.114 150.89V127.167C633.934 126.813 632.222 126.459 629.98 126.105C627.737 125.751 625.259 125.574 622.544 125.574C620.184 125.574 617.764 125.751 615.286 126.105C612.925 126.459 610.742 127.108 608.736 128.052C606.847 128.996 605.313 130.354 604.133 132.124C602.952 133.776 602.362 135.901 602.362 138.497C602.362 143.572 603.956 147.113 607.142 149.119C610.329 151.008 614.637 151.952 620.066 151.952ZM618.295 72.1087C625.377 72.1087 631.337 72.9939 636.176 74.7643C641.015 76.5346 644.851 79.0131 647.683 82.1998C650.634 85.3864 652.699 89.2812 653.88 93.8841C655.178 98.3691 655.827 103.326 655.827 108.755V164.876C652.522 165.584 647.506 166.41 640.779 167.354C634.17 168.416 626.675 168.947 618.295 168.947C612.748 168.947 607.673 168.416 603.07 167.354C598.467 166.292 594.514 164.581 591.209 162.22C588.022 159.86 585.485 156.791 583.596 153.014C581.826 149.237 580.941 144.575 580.941 139.028C580.941 133.717 581.944 129.232 583.95 125.574C586.075 121.915 588.907 118.964 592.448 116.722C595.989 114.361 600.061 112.709 604.664 111.765C609.385 110.703 614.283 110.171 619.358 110.171C621.718 110.171 624.197 110.348 626.793 110.703C629.39 110.939 632.163 111.411 635.114 112.119V108.578C635.114 106.1 634.819 103.739 634.229 101.497C633.639 99.2542 632.576 97.3068 631.042 95.6545C629.626 93.8841 627.678 92.5269 625.2 91.5827C622.839 90.6385 619.83 90.1664 616.171 90.1664C611.214 90.1664 606.67 90.5205 602.539 91.2286C598.408 91.9367 595.045 92.7629 592.448 93.7071L589.793 76.3576C592.507 75.4134 596.461 74.4692 601.654 73.525C606.847 72.5808 612.394 72.1087 618.295 72.1087ZM652.463 41.3045C651.755 42.9568 650.811 44.7862 649.631 46.7926C648.569 48.681 647.211 50.5103 645.559 52.2807C643.907 53.933 642.018 55.3493 639.894 56.5296C637.769 57.7098 635.409 58.2999 632.812 58.2999C630.688 58.2999 628.682 58.0049 626.793 57.4147C624.905 56.7066 623.016 55.9394 621.128 55.1133C619.358 54.2871 617.587 53.5789 615.817 52.9888C614.165 52.2807 612.512 51.9266 610.86 51.9266C608.617 51.9266 606.67 52.6938 605.018 54.2281C603.483 55.7624 602.244 57.5328 601.3 59.5392L590.501 53.1659C591.091 51.5135 591.917 49.7432 592.979 47.8548C594.16 45.8484 595.576 44.019 597.228 42.3667C598.999 40.5963 600.946 39.121 603.07 37.9408C605.195 36.7605 607.555 36.1704 610.152 36.1704C612.276 36.1704 614.283 36.5245 616.171 37.2326C618.059 37.9408 619.889 38.7079 621.659 39.5341C623.548 40.2422 625.318 40.9504 626.97 41.6585C628.741 42.3667 630.452 42.7207 632.104 42.7207C634.347 42.7207 636.235 41.9536 637.769 40.4193C639.422 38.7669 640.72 36.9376 641.664 34.9312L652.463 41.3045ZM760.487 120.617C760.487 127.934 759.425 134.602 757.301 140.622C755.176 146.641 752.166 151.775 748.272 156.024C744.377 160.273 739.656 163.577 734.109 165.938C728.68 168.298 722.66 169.479 716.051 169.479C709.442 169.479 703.423 168.298 697.993 165.938C692.564 163.577 687.902 160.273 684.008 156.024C680.113 151.775 677.044 146.641 674.802 140.622C672.677 134.602 671.615 127.934 671.615 120.617C671.615 113.299 672.677 106.69 674.802 100.789C677.044 94.7693 680.113 89.6353 684.008 85.3864C688.02 81.1376 692.741 77.8919 698.17 75.6494C703.6 73.289 709.56 72.1087 716.051 72.1087C722.542 72.1087 728.503 73.289 733.932 75.6494C739.479 77.8919 744.2 81.1376 748.095 85.3864C751.989 89.6353 754.999 94.7693 757.123 100.789C759.366 106.69 760.487 113.299 760.487 120.617ZM738.535 120.617C738.535 111.411 736.528 104.152 732.515 98.8411C728.621 93.412 723.133 90.6975 716.051 90.6975C708.97 90.6975 703.423 93.412 699.41 98.8411C695.515 104.152 693.568 111.411 693.568 120.617C693.568 129.94 695.515 137.317 699.41 142.746C703.423 148.175 708.97 150.89 716.051 150.89C723.133 150.89 728.621 148.175 732.515 142.746C736.528 137.317 738.535 129.94 738.535 120.617Z" fill="white"/>
<rect x="376.201" y="88.5181" width="88.518" height="66.3885" rx="11.7156" fill="#7B2CBF"/>
<path d="M399.447 110.386C400.437 110.139 401.753 109.876 403.393 109.597C405.033 109.319 406.92 109.179 409.055 109.179C410.974 109.179 412.567 109.458 413.836 110.015C415.105 110.541 416.111 111.299 416.853 112.289C417.627 113.249 418.168 114.409 418.478 115.771C418.787 117.132 418.942 118.633 418.942 120.273V133.826H414.625V121.201C414.625 119.716 414.517 118.447 414.3 117.395C414.115 116.343 413.79 115.492 413.326 114.842C412.861 114.192 412.243 113.728 411.469 113.45C410.695 113.14 409.736 112.986 408.591 112.986C408.127 112.986 407.647 113.001 407.152 113.032C406.657 113.063 406.178 113.109 405.713 113.171C405.28 113.202 404.878 113.249 404.507 113.31C404.166 113.372 403.919 113.419 403.764 113.45V133.826H399.447V110.386ZM432.877 130.717C433.898 130.717 434.795 130.701 435.569 130.67C436.374 130.608 437.039 130.515 437.565 130.392V123.197C437.256 123.042 436.745 122.919 436.033 122.826C435.352 122.702 434.517 122.64 433.527 122.64C432.877 122.64 432.181 122.687 431.438 122.779C430.726 122.872 430.061 123.073 429.442 123.383C428.854 123.661 428.359 124.064 427.957 124.59C427.555 125.085 427.353 125.75 427.353 126.585C427.353 128.133 427.849 129.216 428.839 129.835C429.829 130.423 431.175 130.717 432.877 130.717ZM432.506 109.087C434.239 109.087 435.693 109.319 436.869 109.783C438.076 110.216 439.035 110.85 439.747 111.686C440.489 112.49 441.015 113.465 441.325 114.61C441.634 115.724 441.789 116.962 441.789 118.323V133.409C441.418 133.471 440.891 133.563 440.211 133.687C439.561 133.78 438.818 133.873 437.983 133.966C437.147 134.058 436.234 134.136 435.244 134.198C434.285 134.291 433.326 134.337 432.366 134.337C431.005 134.337 429.752 134.198 428.607 133.919C427.462 133.641 426.472 133.208 425.636 132.62C424.801 132.001 424.151 131.196 423.687 130.206C423.222 129.216 422.99 128.024 422.99 126.632C422.99 125.301 423.253 124.156 423.779 123.197C424.336 122.238 425.079 121.464 426.007 120.876C426.936 120.288 428.019 119.855 429.257 119.577C430.494 119.298 431.794 119.159 433.155 119.159C433.589 119.159 434.037 119.19 434.502 119.252C434.966 119.283 435.399 119.345 435.801 119.437C436.234 119.499 436.606 119.561 436.915 119.623C437.225 119.685 437.441 119.731 437.565 119.762V118.556C437.565 117.844 437.488 117.148 437.333 116.467C437.178 115.755 436.9 115.136 436.497 114.61C436.095 114.053 435.538 113.62 434.826 113.31C434.146 112.97 433.248 112.8 432.134 112.8C430.711 112.8 429.458 112.908 428.375 113.125C427.322 113.31 426.533 113.512 426.007 113.728L425.497 110.154C426.054 109.907 426.982 109.675 428.282 109.458C429.581 109.21 430.989 109.087 432.506 109.087Z" fill="white"/>
</svg>
