<svg width="21" height="22" viewBox="0 0 21 22" fill="none" xmlns="http://www.w3.org/2000/svg">
<path d="M10.5422 0C4.7804 0 0.0844223 4.69598 0.0844223 10.4578C0.0844223 12.3045 0.569849 14.0985 1.47739 15.6814L0 21.1055L5.5402 19.6492C7.07035 20.4829 8.79045 20.9261 10.5422 20.9261C16.304 20.9261 21 16.2301 21 10.4683C21 7.67186 19.9131 5.04422 17.9397 3.07085C15.9663 1.08693 13.3387 0 10.5422 0ZM10.5528 1.76231C12.8744 1.76231 15.0482 2.66985 16.6945 4.31608C18.3301 5.96231 19.2377 8.14673 19.2377 10.4683C19.2377 15.2593 15.3332 19.1533 10.5422 19.1533C8.9804 19.1533 7.45025 18.7417 6.1206 17.9397L5.80402 17.7603L2.51156 18.6256L3.38744 15.4176L3.17638 15.0799C2.31105 13.7186 1.84673 12.104 1.84673 10.4578C1.85729 5.66683 5.75126 1.76231 10.5528 1.76231ZM6.83819 5.62462C6.66935 5.62462 6.38442 5.68794 6.14171 5.95176C5.90955 6.21558 5.22362 6.8593 5.22362 8.13618C5.22362 9.42362 6.16281 10.6583 6.27889 10.8377C6.42663 11.0171 8.13618 13.6553 10.7638 14.7739C11.3864 15.0588 11.8719 15.2171 12.2518 15.3332C12.8744 15.5337 13.4442 15.502 13.898 15.4387C14.4045 15.3648 15.4387 14.8055 15.6603 14.1935C15.8819 13.5814 15.8819 13.0643 15.8186 12.9482C15.7447 12.8427 15.5759 12.7794 15.3121 12.6633C15.0482 12.5156 13.7608 11.8824 13.5286 11.798C13.2859 11.7136 13.1382 11.6714 12.9377 11.9246C12.7688 12.1884 12.2623 12.7794 12.1146 12.9482C11.9563 13.1276 11.8085 13.1487 11.5553 13.0221C11.2809 12.8849 10.4367 12.6106 9.44472 11.7241C8.66382 11.0276 8.14673 10.1729 7.98844 9.90904C7.86181 9.65578 7.97789 9.49749 8.10452 9.38141C8.2206 9.26533 8.38945 9.07538 8.49497 8.91708C8.63216 8.76935 8.67437 8.65326 8.75879 8.48442C8.84321 8.30502 8.801 8.15729 8.73769 8.03065C8.67437 7.91457 8.14673 6.60603 7.92513 6.08894C7.71407 5.58241 7.50301 5.64573 7.33417 5.63518C7.18643 5.63518 7.01759 5.62462 6.83819 5.62462Z" fill="#37C288"/>
</svg>
